<?xml version="1.0" encoding="UTF-8"?>
<svg id="Layer_1" data-name="Layer 1" xmlns="http://www.w3.org/2000/svg" viewBox="0 0 526.4 84.42">
  <defs>
    <style>
      .cls-1 {
        fill: #052248;
      }
    </style>
  </defs>
  <g>
    <path class="cls-1" d="m26.43,7.36c.43-.15.71-.56,1.02-.88.97-.98,1.86-2.09,3.11-2.72,1.68-.85,3.98-.63,4.96,1.15.22.39.9,2.77-.69,2.32-.55-.16-.47-.7-.72-1.06-.15-.21-.43-.38-.7-.28l-.14.05c-.33.12-.63.42-.61.8.08,1.63,2.16,2.52,3.47,1.61,1.68-1.16,1.02-3.54-.16-4.79-1.62-1.71-4.22-1.78-6.19-.62-1.15.68-3.72,2.66-3.58,4.26,0,.1.1.2.21.16h0Z"/>
    <path class="cls-1" d="m29.27,20.34c2.01-.46,4.09-3.86,2.03-5.3-.65-.46-1.47-.71-2.22-.94-.43-.13-2.53-.4-2.78-.84-.22-.39.93-1.8,1.17-2.09.77-.91,1.42-1.43,2.58-.91s1.78,1.73,2.99,2.19c.55.21.9-.47.7-.91-.69-1.45-3.58-3.6-5.32-2.89-1.18.48-3.98,3.68-3.26,5.09.63,1.25,3.65,1.31,4.79,1.83,2.69,1.21-.43,2.87-.87,4.58-.03.12.08.23.2.2h0Z"/>
    <path class="cls-1" d="m77,0h-39.26s3.08,2.81,2.49,7.4c-.66,5.1-3.54,8.94-1.61,11.58,1.51,2.07,4.59.78,5.25,0,7.05-8.34,26.46-4.37,24.86,7.79-1.26,9.54-7.36,5.39-12.19,1.58,0,0-6.36,28.87-20.54,32.59-12.47,3.27-16.17-29.11-20.09-28.78-2.76.24-13.78,19.7-15.59,31.11-.09.56-.15,1.11-.2,1.65H0v19.5h59.16s-21.43-7.16-20.91-9.83c0,0,.16-.88,1.14-.16s2.63,1.24,4.04-.03c1.11-.98.9-3.17,1.62-2.86.72.31,2.16.58,3.09-.15,1.11-.88,1.03-1.85,1.03-3.35s.33-2,5.15-.46c1.78.57,3.21.78,3.67-1.07.46-1.85,1.93-9.74,3.02-15.2.67-3.35,5.1-3.89,7.57-8.55C69.51,41.01,79.87,20.76,77,0Zm-16.85,49.77l-2.69,13.51c-.12.61-.89.82-1.31.36-.9-.99-2.3-2.39-3.78-3.35-.49-.32-.61-.97-.26-1.44l7.14-9.5c.32-.43,1-.12.9.4Z"/>
    <path class="cls-1" d="m.31,63.27c1.8-11.41,12.83-30.87,15.59-31.11,3.92-.33,7.63,32.05,20.09,28.78,14.18-3.72,20.54-32.59,20.54-32.59-.63-.5-2.26-1.76-2.88-2.25,0,0-7.59,29.84-19.37,32.93-9.09,2.39-13.5-31.42-17.98-29.76-3.31,1.22-7.24,6.84-13.79,22.42V0H0v67.79h.02c-.05-1.41.03-2.92.29-4.52Z"/>
    <path class="cls-1" d="m29.87,26.09s0,0,0,0C17.92,19.99,21.14,4.06,27.58,0H2.51v10.23c3.64-1.85,16.25-8.06,20.3-7.23-1.14,1.54-2.02,3.92-2.39,6.58,0,0,0-.01,0-.01,0,0-.02.12-.04.34-.01.12-.02.23-.04.35,0,.04,0,.08-.01.13-.05.48-.08.97-.09,1.46-.12,3.66.36,10.88,5.45,15.21,3.71,3.16,5.61-.38,4.18-.97Z"/>
  </g>
  <g>
    <path class="cls-1" d="m500.18,46.63v2.64h12.94v-2.72l-12.94.08Z"/>
    <path class="cls-1" d="m369.42,41.58c3.61-2.54,6.15-7.41,6.15-12.97,0-8.1-5.17-14.73-11.61-14.73h-25.46v56.87h28.1c6.34-.88,11.12-7.32,11.12-15.02,0-6.54-3.41-12-8.29-14.15Zm-28.19-24.97h22.73c4.88,0,8.88,5.37,8.88,12s-4,12-8.88,12h-22.73v-24Zm23.8,51.41h-23.8v-24.68h23.8c5.56,0,10.05,5.56,10.05,12.39s-4.49,12.29-10.05,12.29Z"/>
    <path class="cls-1" d="m511.07,46.63v2.64h2.73-.69v-2.72l-2.05.08Z"/>
    <polygon class="cls-1" points="173.95 13.77 158.51 66.55 143 13.77 140.04 13.77 124.57 66.55 109.08 13.77 106.23 13.77 122.92 70.65 126.16 70.65 141.54 18.46 156.88 70.65 160.13 70.65 176.79 13.77 173.95 13.77"/>
    <polygon class="cls-1" points="232.59 63.1 231.52 60.37 213.29 13.77 210.38 13.77 192.13 60.37 191.06 63.1 188.14 70.65 191.05 70.65 211.78 17.58 232.71 70.65 235.54 70.65 232.59 63.1"/>
    <polygon class="cls-1" points="310.39 13.77 286.31 67.33 262.31 13.77 259.48 13.77 259.48 70.65 262.21 70.65 262.21 20.21 284.52 70.65 288.11 70.65 310.4 20.21 310.4 70.65 313.13 70.65 313.13 13.77 310.39 13.77"/>
    <rect class="cls-1" x="404.05" y="13.87" width="2.73" height="56.87"/>
    <polygon class="cls-1" points="473.6 16.51 473.6 13.77 435.07 13.77 435.07 13.87 435.07 70.75 437.8 70.75 437.8 70.74 473.6 70.66 473.6 68.01 437.8 68.01 437.8 44.31 466.28 44.31 466.28 41.68 437.8 41.68 437.8 16.51 473.6 16.51"/>
    <path class="cls-1" d="m513.42,48.8c7.41-1.66,12.97-8.78,12.97-17.36,0-9.56-7.12-17.46-16-17.75l-21.66.09v2.64h21.07c7.71,0,13.95,6.73,13.95,15.02s-6.15,15.18-13.86,15.18l-.61.02,12.03,24.03h2.93l-10.83-21.87Z"/>
  </g>
</svg>